<svg width="55" height="55" viewBox="0 0 55 55" fill="none" xmlns="http://www.w3.org/2000/svg">
<path d="M52.2567 54.6167L31.3833 33.7433C29.7167 35.1633 27.8 36.2622 25.6333 37.04C23.4667 37.8178 21.2889 38.2067 19.1 38.2067C13.7622 38.2067 9.24444 36.3589 5.54667 32.6633C1.84889 28.9678 0 24.4511 0 19.1133C0 13.7756 1.84667 9.25667 5.54 5.55667C9.23333 1.85667 13.7489 0.00445244 19.0867 7.9936e-06C24.4244 -0.00443645 28.9444 1.84445 32.6467 5.54667C36.3489 9.2489 38.2 13.7678 38.2 19.1033C38.2 21.4189 37.79 23.66 36.97 25.8267C36.15 27.9933 35.0722 29.8467 33.7367 31.3867L54.61 52.2567L52.2567 54.6167ZM19.1033 34.87C23.5256 34.87 27.2589 33.3478 30.3033 30.3033C33.3478 27.2589 34.87 23.5245 34.87 19.1C34.87 14.6756 33.3478 10.9422 30.3033 7.90001C27.2589 4.85779 23.5256 3.33556 19.1033 3.33334C14.6811 3.33112 10.9467 4.85334 7.9 7.90001C4.85333 10.9467 3.33111 14.68 3.33333 19.1C3.33556 23.52 4.85778 27.2533 7.9 30.3C10.9422 33.3467 14.6756 34.8689 19.1 34.8667" fill="#C7CED7"/>
</svg>
