<svg width="40" height="40" viewBox="0 0 40 40" fill="none" xmlns="http://www.w3.org/2000/svg">
<path fill-rule="evenodd" clip-rule="evenodd" d="M30.0002 15.9973H22.3762L26.921 5.39369C26.9862 5.24155 27.0127 5.0756 26.9979 4.91073C26.9832 4.74586 26.9277 4.58723 26.8365 4.44907C26.7454 4.31092 26.6213 4.19757 26.4755 4.11919C26.3297 4.04081 26.1668 3.99985 26.0013 4H16.0039C15.8081 3.99983 15.6166 4.05715 15.4531 4.16485C15.2896 4.27256 15.1613 4.4259 15.0842 4.60586L9.08578 18.6027C9.02057 18.7548 8.99414 18.9208 9.00889 19.0857C9.02363 19.2505 9.07908 19.4092 9.17025 19.5473C9.26142 19.6855 9.38547 19.7988 9.53126 19.8772C9.67705 19.9556 9.84001 19.9965 10.0055 19.9964H14.9522L9.07778 34.6211C8.67789 35.6149 9.91156 36.4567 10.6914 35.7208L20.7367 26.237L30.65 17.7569C30.8053 17.6241 30.9162 17.4468 30.9677 17.249C31.0192 17.0512 31.0089 16.8424 30.9381 16.6507C30.8673 16.459 30.7394 16.2936 30.5717 16.1767C30.404 16.0599 30.2046 15.9973 30.0002 15.9973ZM20.8606 17.9968H27.2929L19.399 24.7513L12.6308 31.1399L17.3596 19.3685C17.4204 19.2168 17.443 19.0526 17.4256 18.8901C17.4082 18.7276 17.3512 18.5718 17.2597 18.4365C17.1681 18.3011 17.0448 18.1903 16.9005 18.1136C16.7561 18.037 16.5952 17.9969 16.4318 17.9968H11.5211L16.6638 5.99955H24.4857L19.9409 16.6032C19.8757 16.7553 19.8492 16.9212 19.864 17.0861C19.8787 17.251 19.9342 17.4096 20.0253 17.5478C20.1165 17.6859 20.2406 17.7993 20.3864 17.8777C20.5321 17.956 20.6951 17.997 20.8606 17.9968Z" fill="#8695AA"/>
</svg>
