<svg width="80" height="80" viewBox="0 0 80 80" fill="none" xmlns="http://www.w3.org/2000/svg">
<path d="M32.0109 8.50021H52.0118C52.2602 8.49999 52.505 8.56135 52.7238 8.67892C52.9425 8.79652 53.1289 8.96677 53.2657 9.17404C53.4024 9.38123 53.4858 9.61919 53.5079 9.86642C53.5301 10.1138 53.4896 10.3628 53.3917 10.591L44.2999 31.8029L44.0011 32.5002H60.0118C60.3185 32.5002 60.6177 32.5945 60.8693 32.7697C61.1208 32.945 61.3128 33.1931 61.4191 33.4807C61.5253 33.7683 61.5403 34.0814 61.463 34.3781C61.3857 34.6749 61.2195 34.9406 60.9865 35.1399L41.1544 52.1047L41.1368 52.1203L21.0402 71.093C19.9068 72.1617 18.1353 71.0099 18.5704 69.5822L18.6193 69.4426L30.3712 40.1867L30.6476 39.5002H20.0109C19.7627 39.5004 19.5185 39.4389 19.2999 39.3215C19.0812 39.2039 18.8947 39.0337 18.7579 38.8264C18.6212 38.6192 18.5379 38.3813 18.5157 38.134C18.4936 37.8867 18.5332 37.6376 18.631 37.4094L30.631 9.40939C30.7467 9.13939 30.9394 8.90888 31.1847 8.74728C31.4299 8.58578 31.7173 8.50003 32.0109 8.50021ZM32.8722 11.8029L22.5841 35.8029L22.2853 36.5002H32.8673C33.1123 36.5003 33.354 36.5602 33.5704 36.675C33.7868 36.7899 33.9722 36.9565 34.1095 37.1594C34.2468 37.3624 34.3324 37.5964 34.3585 37.8401C34.3781 38.0228 34.3643 38.2073 34.3175 38.384L34.2599 38.5578L24.7999 62.1057L25.6066 62.6555L39.1398 49.882L54.921 36.3801L55.9493 35.5002H41.7277C41.4793 35.5004 41.2345 35.4391 41.0157 35.3215C40.797 35.2039 40.6106 35.0337 40.4738 34.8264C40.3371 34.6192 40.2537 34.3812 40.2316 34.134C40.2095 33.8868 40.2491 33.6376 40.3468 33.4094H40.3478L49.4396 12.1975L49.7384 11.5002H33.0021L32.8722 11.8029Z" fill="#193760" stroke="#193760"/>
</svg>
