<svg width="80" height="80" viewBox="0 0 80 80" fill="none" xmlns="http://www.w3.org/2000/svg">
<path d="M7.00012 58.6663H27.0001M27.0001 68.6663H7.00012M53.6668 58.6663H73.6668M73.6668 68.6663H53.6668M45.3335 40.333H35.3335V53.6663H45.3335V40.333Z" stroke="#193760" stroke-width="4" stroke-linecap="round" stroke-linejoin="round"/>
<path d="M40.3334 23.6663L45.3334 18.6663M57.0001 23.6663C57.0001 28.0866 55.2441 32.3258 52.1185 35.4514C48.9929 38.577 44.7537 40.333 40.3334 40.333C35.9131 40.333 31.6739 38.577 28.5483 35.4514C25.4227 32.3258 23.6667 28.0866 23.6667 23.6663C23.6667 19.2461 25.4227 15.0068 28.5483 11.8812C31.6739 8.75561 35.9131 6.99966 40.3334 6.99966C44.7537 6.99966 48.9929 8.75561 52.1185 11.8812C55.2441 15.0068 57.0001 19.2461 57.0001 23.6663ZM47.0001 53.6663H33.6667C30.5234 53.6663 28.9534 53.6663 27.9767 54.643C27.0001 55.6197 27.0001 57.1897 27.0001 60.333V66.9997C27.0001 70.143 27.0001 71.713 27.9767 72.6897C28.9534 73.6663 30.5234 73.6663 33.6667 73.6663H47.0001C50.1434 73.6663 51.7134 73.6663 52.6901 72.6897C53.6667 71.713 53.6667 70.143 53.6667 66.9997V60.333C53.6667 57.1897 53.6667 55.6197 52.6901 54.643C51.7134 53.6663 50.1434 53.6663 47.0001 53.6663Z" stroke="#193760" stroke-width="4" stroke-linecap="round" stroke-linejoin="round"/>
</svg>
