<svg width="40" height="40" viewBox="0 0 40 40" fill="none" xmlns="http://www.w3.org/2000/svg">
<path d="M3.50024 29.3332H13.5002M13.5002 34.3332H3.50024M26.8336 29.3332H36.8336M36.8336 34.3332H26.8336M22.6669 20.1665H17.6669V26.8332H22.6669V20.1665Z" stroke="#8695AA" stroke-width="2" stroke-linecap="round" stroke-linejoin="round"/>
<path d="M20.1668 11.8332L22.6668 9.33321M28.5002 11.8332C28.5002 14.0433 27.6222 16.163 26.0594 17.7258C24.4966 19.2886 22.377 20.1665 20.1668 20.1665C17.9567 20.1665 15.8371 19.2886 14.2743 17.7258C12.7115 16.163 11.8335 14.0433 11.8335 11.8332C11.8335 9.62307 12.7115 7.50346 14.2743 5.94065C15.8371 4.37785 17.9567 3.49988 20.1668 3.49988C22.377 3.49988 24.4966 4.37785 26.0594 5.94065C27.6222 7.50346 28.5002 9.62307 28.5002 11.8332ZM23.5002 26.8332H16.8335C15.2618 26.8332 14.4768 26.8332 13.9885 27.3215C13.5002 27.8099 13.5002 28.5949 13.5002 30.1665V33.4999C13.5002 35.0715 13.5002 35.8565 13.9885 36.3449C14.4768 36.8332 15.2618 36.8332 16.8335 36.8332H23.5002C25.0718 36.8332 25.8568 36.8332 26.3452 36.3449C26.8335 35.8565 26.8335 35.0715 26.8335 33.4999V30.1665C26.8335 28.5949 26.8335 27.8099 26.3452 27.3215C25.8568 26.8332 25.0718 26.8332 23.5002 26.8332Z" stroke="#8695AA" stroke-width="2" stroke-linecap="round" stroke-linejoin="round"/>
</svg>
