<svg width="80" height="80" viewBox="0 0 80 80" fill="none" xmlns="http://www.w3.org/2000/svg">
<path d="M58.4805 6.75L58.8057 6.7627C59.5602 6.82205 60.2872 7.08474 60.9082 7.52441C61.5689 7.99226 62.0767 8.64093 62.3779 9.38965H71.6797C72.096 9.38965 72.4956 9.55529 72.79 9.84961C73.0845 10.144 73.25 10.5436 73.25 10.96C73.25 11.3763 73.0845 11.7759 72.79 12.0703C72.4956 12.3647 72.096 12.5303 71.6797 12.5303H62.6904V30.5098H71.6797C72.096 30.5098 72.4956 30.6754 72.79 30.9697C73.0845 31.2642 73.25 31.6637 73.25 32.0801C73.25 32.4964 73.0845 32.896 72.79 33.1904C72.4956 33.4847 72.096 33.6504 71.6797 33.6504H62.3779C62.0766 34.3991 61.5689 35.0478 60.9082 35.5156C60.1984 36.0182 59.3502 36.289 58.4805 36.29H53.2002C52.3304 36.289 51.4814 36.0182 50.7715 35.5156C50.1108 35.0478 49.603 34.3991 49.3018 33.6504H42.6396C40.2555 33.6505 37.9691 34.5973 36.2832 36.2832C34.5973 37.9691 33.6505 40.2555 33.6504 42.6396V49.3018C34.3991 49.603 35.0478 50.1108 35.5156 50.7715C36.0182 51.4814 36.289 52.3304 36.29 53.2002V58.4805C36.289 59.3502 36.0182 60.1984 35.5156 60.9082C35.0479 61.5688 34.399 62.0757 33.6504 62.377V71.6797C33.6504 72.096 33.4847 72.4956 33.1904 72.79C32.896 73.0845 32.4964 73.25 32.0801 73.25C31.6637 73.25 31.2642 73.0845 30.9697 72.79C30.6754 72.4956 30.5098 72.096 30.5098 71.6797V62.6904H12.5303V71.6797C12.5303 72.096 12.3647 72.4956 12.0703 72.79C11.7759 73.0845 11.3763 73.25 10.96 73.25C10.5436 73.25 10.144 73.0845 9.84961 72.79C9.55529 72.4956 9.38965 72.096 9.38965 71.6797V62.377C8.64107 62.0757 7.99219 61.5688 7.52441 60.9082C7.02187 60.1984 6.75103 59.3502 6.75 58.4805V53.2002L6.7627 52.875C6.82195 52.1202 7.08461 51.3927 7.52441 50.7715C7.99227 50.1108 8.64096 49.603 9.38965 49.3018V42.6396C9.39935 33.8243 12.9062 25.3731 19.1396 19.1396C25.3731 12.9062 33.8243 9.39935 42.6396 9.38965H49.3018C49.603 8.64096 50.1108 7.99228 50.7715 7.52441C51.4814 7.02184 52.3304 6.75099 53.2002 6.75H58.4805ZM10.96 52.1299C10.6762 52.1299 10.4038 52.2427 10.2031 52.4434C10.0025 52.644 9.88965 52.9165 9.88965 53.2002V58.4805C9.88977 58.764 10.0027 59.0358 10.2031 59.2363C10.4038 59.437 10.6762 59.5498 10.96 59.5498H32.0801C32.3638 59.5498 32.6363 59.437 32.8369 59.2363C33.0373 59.0358 33.1503 58.7639 33.1504 58.4805V53.2002C33.1504 52.9165 33.0375 52.644 32.8369 52.4434C32.6363 52.2427 32.3638 52.1299 32.0801 52.1299H10.96ZM41.8926 12.54C34.1806 12.7396 26.8268 15.89 21.3584 21.3584C15.7135 27.0033 12.5389 34.6575 12.5303 42.6406V48.9902H30.5098V42.6396C30.5099 39.4227 31.7878 36.3372 34.0625 34.0625C36.3372 31.7878 39.4227 30.5099 42.6396 30.5098H48.9902V12.5303H42.6406L41.8926 12.54ZM53.2002 9.88965C52.9165 9.88965 52.644 10.0025 52.4434 10.2031C52.2427 10.4038 52.1299 10.6762 52.1299 10.96V32.0801C52.1299 32.3638 52.2427 32.6363 52.4434 32.8369C52.644 33.0375 52.9165 33.1504 53.2002 33.1504H58.4805C58.7639 33.1503 59.0358 33.0373 59.2363 32.8369C59.437 32.6363 59.5498 32.3638 59.5498 32.0801V10.96C59.5498 10.6762 59.437 10.4038 59.2363 10.2031C59.0358 10.0027 58.764 9.88977 58.4805 9.88965H53.2002Z" fill="#193760" stroke="#193760" stroke-width="0.5"/>
</svg>
