<svg width="40" height="40" viewBox="0 0 40 40" fill="none" xmlns="http://www.w3.org/2000/svg">
<path d="M29.8805 24.1195C29.8805 30.183 26.0634 34 19.9999 34C13.9364 34 10.1194 30.183 10.1194 24.1195C10.1194 17.6127 17.2025 8.82865 19.3748 6.28784C19.4521 6.19757 19.5481 6.1251 19.656 6.07541C19.764 6.02573 19.8814 6 20.0003 6C20.1191 6 20.2365 6.02573 20.3445 6.07541C20.4525 6.1251 20.5484 6.19757 20.6257 6.28784C22.7973 8.82865 29.8805 17.6127 29.8805 24.1195Z" stroke="#8695AA" stroke-width="2" stroke-miterlimit="10"/>
<path d="M25 26C25 27.0609 24.5786 28.0783 23.8284 28.8284C23.0783 29.5786 22.0609 30 21 30" stroke="#8695AA" stroke-width="2" stroke-linecap="round" stroke-linejoin="round"/>
</svg>
