<svg width="100" height="100" viewBox="0 0 100 100" fill="none" xmlns="http://www.w3.org/2000/svg">
<path fill-rule="evenodd" clip-rule="evenodd" d="M12 12H16.75V83.25H88V88H12V12ZM82.3807 68.4632C82.6223 68.2656 82.8225 68.0223 82.97 67.7472C83.1174 67.4722 83.2092 67.1707 83.2401 66.8602C83.2709 66.5496 83.2403 66.236 83.1499 65.9373C83.0595 65.6386 82.9111 65.3606 82.7132 65.1192L61.3382 38.9943C61.1282 38.7378 60.8667 38.5282 60.5707 38.3789C60.2747 38.2296 59.9508 38.1439 59.6197 38.1274C59.2886 38.1108 58.9577 38.1638 58.6483 38.2828C58.3389 38.4018 58.0579 38.5843 57.8232 38.8185L45.535 51.1068L28.169 27.2285C27.7891 26.7454 27.2368 26.4284 26.628 26.3441C26.0193 26.2598 25.4016 26.4147 24.9047 26.7763C24.4078 27.1379 24.0704 27.6781 23.9634 28.2832C23.8564 28.8884 23.9882 29.5115 24.331 30.0215L43.331 56.1465C43.5327 56.4243 43.7922 56.6551 44.0916 56.823C44.3911 56.9908 44.7233 57.0918 45.0656 57.1189C45.4078 57.146 45.7518 57.0985 46.0739 56.9799C46.3961 56.8612 46.6886 56.6741 46.9315 56.4315L59.3243 44.034L79.0368 68.1308C79.2344 68.3723 79.4777 68.5725 79.7528 68.72C80.0278 68.8674 80.3293 68.9592 80.6398 68.9901C80.9504 69.021 81.264 68.9903 81.5627 68.8999C81.8615 68.8095 82.1394 68.6611 82.3807 68.4632Z" fill="#193760"/>
</svg>
