<svg width="100" height="100" viewBox="0 0 100 100" fill="none" xmlns="http://www.w3.org/2000/svg">
<path d="M98.6367 42.5L88.6718 22.5586C88.351 21.9161 87.9067 21.3431 87.3644 20.8723C86.822 20.4015 86.1923 20.0421 85.5111 19.8146C84.8299 19.5872 84.1106 19.4962 83.3942 19.5468C82.6778 19.5973 81.9784 19.7885 81.3359 20.1094L71.3515 25.1016L50.5976 19.6094C50.2056 19.5078 49.7943 19.5078 49.4023 19.6094L28.6484 25.1016L18.6679 20.1094C18.0252 19.7879 17.3255 19.5962 16.6087 19.5453C15.8919 19.4945 15.1721 19.5853 14.4904 19.8128C13.8087 20.0403 13.1786 20.3998 12.636 20.871C12.0934 21.3421 11.6489 21.9156 11.3281 22.5586L1.36322 42.5C0.714924 43.7971 0.608335 45.2986 1.0669 46.6743C1.52546 48.05 2.51163 49.1872 3.80854 49.8359L14.414 55.1406L36.1367 70.6562C36.3721 70.826 36.637 70.9505 36.9179 71.0234L61.9179 77.2734C62.1082 77.3211 62.3038 77.3448 62.4999 77.3437C63.1213 77.3432 63.7171 77.0959 64.1562 76.6562L85.7617 55.0508L96.1914 49.8359C97.4883 49.1872 98.4744 48.05 98.933 46.6743C99.3916 45.2986 99.285 43.7971 98.6367 42.5ZM77.9335 56.2344L63.9492 45.0312C63.4982 44.6703 62.9298 44.4886 62.353 44.521C61.7763 44.5535 61.2318 44.7978 60.8242 45.207C53.539 52.5469 45.3945 51.6211 40.2031 48.3008C40.101 48.2378 40.0148 48.1522 39.9511 48.0506C39.8874 47.949 39.848 47.8341 39.8359 47.7148C39.822 47.6054 39.8327 47.4944 39.8672 47.3896C39.9016 47.2849 39.959 47.1891 40.0351 47.1094L57.1992 30.4687H70.4257L81.5234 52.6641L77.9335 56.2344ZM5.51166 45.1914C5.44706 44.9956 5.46251 44.7821 5.55463 44.5976L15.5234 24.6523C15.5889 24.5223 15.6894 24.4132 15.8137 24.3372C15.9379 24.2613 16.0809 24.2216 16.2265 24.2226C16.3472 24.2228 16.4662 24.2509 16.5742 24.3047L25.2499 28.6406L14.5781 50L5.90229 45.6641C5.80866 45.6157 5.7258 45.5489 5.65866 45.4676C5.59153 45.3864 5.54153 45.2925 5.51166 45.1914ZM61.7812 72.4062L38.4999 66.5859L18.6171 52.3828L30.0156 29.5898L49.9999 24.3008L55.7812 25.832C55.339 25.9176 54.9316 26.1308 54.6093 26.4453L36.7578 43.7695C36.1781 44.3488 35.7361 45.0509 35.4643 45.824C35.1926 46.597 35.098 47.4213 35.1876 48.2358C35.2773 49.0504 35.5488 49.8344 35.9822 50.5298C36.4155 51.2253 36.9996 51.8145 37.6913 52.2539C45.5898 57.3008 55.1718 56.3515 62.6132 49.9531L74.6093 59.5703L61.7812 72.4062ZM94.4882 45.1914C94.4561 45.2889 94.405 45.3791 94.338 45.4568C94.271 45.5346 94.1893 45.5984 94.0976 45.6445L85.4218 50L74.7499 28.6406L83.4257 24.3047C83.5176 24.2585 83.6177 24.231 83.7203 24.2236C83.8228 24.2162 83.9258 24.2292 84.0234 24.2617C84.1209 24.2939 84.2111 24.3449 84.2888 24.4119C84.3666 24.479 84.4303 24.5606 84.4765 24.6523L94.4453 44.5976C94.5374 44.7821 94.5528 44.9956 94.4882 45.1914ZM50.7382 84.9414C50.5878 85.5442 50.2042 86.0627 49.6717 86.3828C49.1391 86.7029 48.5013 86.7984 47.8984 86.6484L31.5976 82.5742C31.3164 82.5021 31.0513 82.3775 30.8164 82.207L20.5156 74.8594C20.0095 74.4968 19.6682 73.948 19.5667 73.3337C19.4652 72.7195 19.612 72.0901 19.9746 71.584C20.3372 71.0779 20.8859 70.7366 21.5002 70.6351C22.1145 70.5337 22.7439 70.6804 23.2499 71.043L33.1679 78.125L49.0312 82.0898C49.3306 82.1647 49.6123 82.2979 49.86 82.4818C50.1078 82.6658 50.3168 82.8969 50.4751 83.1618C50.6333 83.4268 50.7377 83.7204 50.7822 84.0258C50.8267 84.3311 50.8104 84.6423 50.7343 84.9414H50.7382Z" fill="#193760"/>
</svg>
