<svg width="80" height="80" viewBox="0 0 80 80" fill="none" xmlns="http://www.w3.org/2000/svg">
<path d="M62 49.2617C62 63.0695 53.3078 71.7617 39.5 71.7617C25.6922 71.7617 17 63.0695 17 49.2617C17 34.4445 33.1297 14.4414 38.0766 8.65548C38.2526 8.44991 38.471 8.28488 38.7169 8.17174C38.9627 8.05859 39.2301 8 39.5008 8C39.7714 8 40.0388 8.05859 40.2847 8.17174C40.5305 8.28488 40.749 8.44991 40.925 8.65548C45.8703 14.4414 62 34.4445 62 49.2617Z" stroke="#193760" stroke-width="4" stroke-miterlimit="10"/>
<path d="M53.75 51.25C53.75 54.2337 52.5647 57.0952 50.455 59.205C48.3452 61.3147 45.4837 62.5 42.5 62.5" stroke="#193760" stroke-width="4" stroke-linecap="round" stroke-linejoin="round"/>
</svg>
