<svg width="80" height="80" viewBox="0 0 80 80" fill="none" xmlns="http://www.w3.org/2000/svg">
<path d="M70 12V68C70 68.5304 69.7893 69.0391 69.4142 69.4142C69.0391 69.7893 68.5304 70 68 70H12C11.4696 70 10.9609 69.7893 10.5858 69.4142C10.2107 69.0391 10 68.5304 10 68V12C10 11.4696 10.2107 10.9609 10.5858 10.5858C10.9609 10.2107 11.4696 10 12 10H68C68.5304 10 69.0391 10.2107 69.4142 10.5858C69.7893 10.9609 70 11.4696 70 12Z" stroke="#193760" stroke-width="4" stroke-linecap="round" stroke-linejoin="round"/>
<path d="M26.6667 20C26.6667 20 18.3333 30 26.6667 40C35 50 26.6667 60 26.6667 60M40 20C40 20 31.6667 30 40 40C48.3333 50 40 60 40 60M53.3333 20C53.3333 20 45 30 53.3333 40C61.6667 50 53.3333 60 53.3333 60" stroke="#193760" stroke-width="4" stroke-linecap="round" stroke-linejoin="round"/>
</svg>
