<svg width="40" height="40" viewBox="0 0 40 40" fill="none" xmlns="http://www.w3.org/2000/svg">
<path d="M35 6V34C35 34.2652 34.8946 34.5196 34.7071 34.7071C34.5196 34.8946 34.2652 35 34 35H6C5.73478 35 5.48043 34.8946 5.29289 34.7071C5.10536 34.5196 5 34.2652 5 34V6C5 5.73478 5.10536 5.48043 5.29289 5.29289C5.48043 5.10536 5.73478 5 6 5H34C34.2652 5 34.5196 5.10536 34.7071 5.29289C34.8946 5.48043 35 5.73478 35 6Z" stroke="#8695AA" stroke-width="2" stroke-linecap="round" stroke-linejoin="round"/>
<path d="M13.3333 10C13.3333 10 9.16663 15 13.3333 20C17.5 25 13.3333 30 13.3333 30M20 10C20 10 15.8333 15 20 20C24.1666 25 20 30 20 30M26.6666 10C26.6666 10 22.5 15 26.6666 20C30.8333 25 26.6666 30 26.6666 30" stroke="#8695AA" stroke-width="2" stroke-linecap="round" stroke-linejoin="round"/>
</svg>
