<svg width="40" height="40" viewBox="0 0 40 40" fill="none" xmlns="http://www.w3.org/2000/svg">
<path d="M34.4 15.8H30.2V7.4H34.4C34.5591 7.4 34.7117 7.33679 34.8243 7.22426C34.9368 7.11174 35 6.95913 35 6.8C35 6.64087 34.9368 6.48826 34.8243 6.37574C34.7117 6.26321 34.5591 6.2 34.4 6.2H30.095C29.971 5.84939 29.7415 5.54578 29.438 5.3309C29.1345 5.11602 28.7719 5.00042 28.4 5H26C25.6281 5.00042 25.2655 5.11602 24.962 5.3309C24.6585 5.54578 24.429 5.84939 24.305 6.2H21.2C17.2231 6.20437 13.4103 7.78612 10.5982 10.5982C7.78612 13.4103 6.20437 17.2231 6.2 21.2V24.305C5.84939 24.429 5.54578 24.6585 5.3309 24.962C5.11602 25.2655 5.00042 25.6281 5 26V28.4C5.00042 28.7719 5.11602 29.1345 5.3309 29.438C5.54578 29.7415 5.84939 29.971 6.2 30.095V34.4C6.2 34.5591 6.26321 34.7117 6.37574 34.8243C6.48826 34.9368 6.64087 35 6.8 35C6.95913 35 7.11174 34.9368 7.22426 34.8243C7.33679 34.7117 7.4 34.5591 7.4 34.4V30.2H15.8V34.4C15.8 34.5591 15.8632 34.7117 15.9757 34.8243C16.0883 34.9368 16.2409 35 16.4 35C16.5591 35 16.7117 34.9368 16.8243 34.8243C16.9368 34.7117 17 34.5591 17 34.4V30.095C17.3506 29.971 17.6542 29.7415 17.8691 29.438C18.084 29.1345 18.1996 28.7719 18.2 28.4V26C18.1996 25.6281 18.084 25.2655 17.8691 24.962C17.6542 24.6585 17.3506 24.429 17 24.305V21.2C17 20.0861 17.4425 19.0178 18.2302 18.2302C19.0178 17.4425 20.0861 17 21.2 17H24.305C24.429 17.3506 24.6585 17.6542 24.962 17.8691C25.2655 18.084 25.6281 18.1996 26 18.2H28.4C28.7719 18.1996 29.1345 18.084 29.438 17.8691C29.7415 17.6542 29.971 17.3506 30.095 17H34.4C34.5591 17 34.7117 16.9368 34.8243 16.8243C34.9368 16.7117 35 16.5591 35 16.4C35 16.2409 34.9368 16.0883 34.8243 15.9757C34.7117 15.8632 34.5591 15.8 34.4 15.8ZM17 28.4C17 28.5591 16.9368 28.7117 16.8243 28.8243C16.7117 28.9368 16.5591 29 16.4 29H6.8C6.64087 29 6.48826 28.9368 6.37574 28.8243C6.26321 28.7117 6.2 28.5591 6.2 28.4V26C6.2 25.8409 6.26321 25.6883 6.37574 25.5757C6.48826 25.4632 6.64087 25.4 6.8 25.4H16.4C16.5591 25.4 16.7117 25.4632 16.8243 25.5757C16.9368 25.6883 17 25.8409 17 26V28.4ZM15.8 21.2V24.2H7.4V21.2C7.40397 17.5412 8.85917 14.0335 11.4463 11.4463C14.0335 8.85917 17.5412 7.40397 21.2 7.4H24.2V15.8H21.2C19.7678 15.8 18.3943 16.3689 17.3816 17.3816C16.3689 18.3943 15.8 19.7678 15.8 21.2ZM28.4 17H26C25.8409 17 25.6883 16.9368 25.5757 16.8243C25.4632 16.7117 25.4 16.5591 25.4 16.4V6.8C25.4 6.64087 25.4632 6.48826 25.5757 6.37574C25.6883 6.26321 25.8409 6.2 26 6.2H28.4C28.5591 6.2 28.7117 6.26321 28.8243 6.37574C28.9368 6.48826 29 6.64087 29 6.8V16.4C29 16.5591 28.9368 16.7117 28.8243 16.8243C28.7117 16.9368 28.5591 17 28.4 17Z" fill="#8695AA" stroke="#8695AA"/>
</svg>
