<svg width="100" height="100" viewBox="0 0 100 100" fill="none" xmlns="http://www.w3.org/2000/svg">
<path fill-rule="evenodd" clip-rule="evenodd" d="M28.02 27.2501C24.5639 30.6553 21.9219 34.7976 20.2916 39.3673C18.6613 43.9371 18.0847 48.8162 18.605 53.6401C18.6534 54.288 18.4477 54.9294 18.0313 55.4283C17.615 55.9271 17.0208 56.2443 16.3746 56.3125C15.7284 56.3808 15.081 56.1948 14.5696 55.7939C14.0582 55.3931 13.723 54.8088 13.635 54.1651C13.0349 48.5935 13.7013 42.9584 15.5844 37.6805C17.4675 32.4026 20.5186 27.6184 24.51 23.6851C39.195 9.20006 62.885 9.43506 77.42 24.1751C91.955 38.9151 91.86 62.6001 77.17 77.0851C70.369 83.8005 61.2414 87.6363 51.685 87.7951C48.0717 87.8613 44.4677 87.4049 40.985 86.4401C40.3458 86.2637 39.8029 85.8406 39.4756 85.264C39.1484 84.6873 39.0636 84.0042 39.24 83.3651C39.4164 82.7259 39.8394 82.183 40.4161 81.8557C40.9928 81.5285 41.6758 81.4437 42.315 81.62C45.3355 82.4572 48.4612 82.8529 51.595 82.7951C59.87 82.665 67.775 79.3439 73.66 73.5251C86.365 60.9951 86.47 40.4751 73.86 27.6851C61.25 14.8951 40.725 14.7201 28.02 27.2501Z" fill="#193760"/>
<path fill-rule="evenodd" clip-rule="evenodd" d="M17.97 56.8151C17.7514 57.06 17.4866 57.2595 17.1909 57.4021C16.8951 57.5447 16.5742 57.6276 16.2464 57.6462C15.9186 57.6648 15.5904 57.6186 15.2804 57.5103C14.9705 57.402 14.6849 57.2337 14.44 57.0151L5.84 49.3651C5.57563 49.1529 5.35718 48.8891 5.19794 48.5898C5.03871 48.2905 4.942 47.962 4.91372 47.6241C4.88543 47.2863 4.92615 46.9462 5.0334 46.6246C5.14065 46.303 5.31218 46.0066 5.53758 45.7534C5.76298 45.5001 6.03752 45.2954 6.34453 45.1516C6.65153 45.0078 6.98457 44.9279 7.3234 44.9169C7.66224 44.9058 7.99978 44.9638 8.31551 45.0872C8.63124 45.2107 8.91856 45.3971 9.16 45.6351L17.76 53.2851C18.0056 53.503 18.2059 53.7673 18.3494 54.0626C18.4929 54.358 18.5768 54.6788 18.5963 55.0066C18.6158 55.3344 18.5705 55.6628 18.4631 55.9731C18.3556 56.2834 18.1881 56.5695 17.97 56.8151Z" fill="#193760"/>
<path fill-rule="evenodd" clip-rule="evenodd" d="M14.1 56.5C14.297 56.7626 14.5438 56.9839 14.8263 57.1512C15.1088 57.3185 15.4214 57.4284 15.7464 57.4749C16.0715 57.5213 16.4024 57.5033 16.7205 57.4218C17.0385 57.3403 17.3374 57.197 17.6 57L27.6 49.5C28.1304 49.1022 28.4811 48.5099 28.5749 47.8536C28.6686 47.1972 28.4978 46.5304 28.1 46C27.7022 45.4696 27.1099 45.1189 26.4536 45.0251C25.7972 44.9314 25.1304 45.1022 24.6 45.5L14.6 53C14.0696 53.3978 13.7189 53.9901 13.6251 54.6464C13.5314 55.3028 13.7022 55.9696 14.1 56.5ZM50 32.5C50.663 32.5 51.2989 32.7634 51.7678 33.2322C52.2366 33.7011 52.5 34.337 52.5 35V52.5C52.5 53.163 52.2366 53.7989 51.7678 54.2678C51.2989 54.7366 50.663 55 50 55C49.337 55 48.7011 54.7366 48.2322 54.2678C47.7634 53.7989 47.5 53.163 47.5 52.5V35C47.5 34.337 47.7634 33.7011 48.2322 33.2322C48.7011 32.7634 49.337 32.5 50 32.5Z" fill="#193760"/>
<path fill-rule="evenodd" clip-rule="evenodd" d="M67.5 52.5C67.5 53.163 67.2366 53.7989 66.7678 54.2678C66.2989 54.7366 65.663 55 65 55H50C49.337 55 48.7011 54.7366 48.2322 54.2678C47.7634 53.7989 47.5 53.163 47.5 52.5C47.5 51.837 47.7634 51.2011 48.2322 50.7322C48.7011 50.2634 49.337 50 50 50H65C65.663 50 66.2989 50.2634 66.7678 50.7322C67.2366 51.2011 67.5 51.837 67.5 52.5Z" fill="#193760"/>
</svg>
