<svg width="32" height="32" viewBox="0 0 32 32" fill="none" xmlns="http://www.w3.org/2000/svg">
<path d="M16 1.5C24.2845 1.5 31 8.2155 31 16.5C31 24.7845 24.2845 31.5 16 31.5C13.3491 31.5045 10.7449 30.803 8.45502 29.4675L1.00602 31.5L3.03402 24.048C1.69746 21.7574 0.995378 19.152 1.00002 16.5C1.00002 8.2155 7.71552 1.5 16 1.5ZM10.888 9.44999L10.588 9.46199C10.3941 9.47536 10.2045 9.5263 10.03 9.61199C9.86738 9.70426 9.71886 9.81944 9.58902 9.95399C9.40902 10.1235 9.30702 10.2705 9.19752 10.413C8.6427 11.1343 8.34398 12.02 8.34852 12.93C8.35152 13.665 8.54352 14.3805 8.84352 15.0495C9.45702 16.4025 10.4665 17.835 11.7985 19.1625C12.1195 19.482 12.4345 19.803 12.7735 20.1015C14.4287 21.5586 16.4009 22.6094 18.5335 23.1705L19.3855 23.301C19.663 23.316 19.9405 23.295 20.2195 23.2815C20.6563 23.2584 21.0827 23.1402 21.469 22.935C21.6653 22.8335 21.857 22.7234 22.0435 22.605C22.0435 22.605 22.107 22.562 22.231 22.47C22.4335 22.32 22.558 22.2135 22.726 22.038C22.852 21.908 22.957 21.757 23.041 21.585C23.158 21.3405 23.275 20.874 23.323 20.4855C23.359 20.1885 23.3485 20.0265 23.344 19.926C23.338 19.7655 23.2045 19.599 23.059 19.5285L22.186 19.137C22.186 19.137 20.881 18.5685 20.083 18.2055C19.9995 18.1691 19.91 18.1483 19.819 18.144C19.7164 18.1332 19.6126 18.1447 19.5148 18.1776C19.417 18.2104 19.3273 18.264 19.252 18.3345C19.2445 18.3315 19.144 18.417 18.0595 19.731C17.9973 19.8146 17.9115 19.8778 17.8132 19.9126C17.7149 19.9473 17.6085 19.952 17.5075 19.926C17.4097 19.8999 17.314 19.8668 17.221 19.827C17.035 19.749 16.9705 19.719 16.843 19.665C15.9818 19.2898 15.1847 18.7822 14.4805 18.1605C14.2915 17.9955 14.116 17.8155 13.936 17.6415C13.3459 17.0763 12.8316 16.437 12.406 15.7395L12.3175 15.597C12.2549 15.5007 12.2036 15.3975 12.1645 15.2895C12.1075 15.069 12.256 14.892 12.256 14.892C12.256 14.892 12.6205 14.493 12.79 14.277C12.955 14.067 13.0945 13.863 13.1845 13.7175C13.3615 13.4325 13.417 13.14 13.324 12.9135C12.904 11.8875 12.47 10.867 12.022 9.85199C11.9335 9.65099 11.671 9.50699 11.4325 9.47849C11.3515 9.46849 11.2705 9.46049 11.1895 9.45449C10.9881 9.44294 10.7862 9.44495 10.585 9.46049L10.888 9.44999Z" fill="#193760"/>
</svg>
