<svg width="32" height="32" viewBox="0 0 32 32" fill="none" xmlns="http://www.w3.org/2000/svg">
<path d="M2.24 2.24C4.23855e-07 4.50133 0 8.11733 0 15.36V16.64C0 23.872 4.23855e-07 27.488 2.24 29.76C4.50133 32 8.11733 32 15.36 32H16.64C23.872 32 27.488 32 29.76 29.76C32 27.4987 32 23.8827 32 16.64V15.36C32 8.128 32 4.512 29.76 2.24C27.4987 4.23855e-07 23.8827 0 16.64 0H15.36C8.128 0 4.512 4.23855e-07 2.24 2.24ZM5.39733 9.73867H9.06667C9.184 15.84 11.872 18.4213 14.0053 18.9547V9.73867H17.4507V14.9973C19.552 14.7733 21.7707 12.3733 22.5173 9.728H25.952C25.6717 11.0973 25.1122 12.3941 24.3084 13.5374C23.5045 14.6808 22.4736 15.6462 21.28 16.3733C22.6123 17.0362 23.7889 17.9741 24.7322 19.1251C25.6754 20.2761 26.3638 21.6141 26.752 23.0507H22.9653C22.1547 20.5227 20.128 18.56 17.4507 18.2933V23.0507H17.024C9.728 23.0507 5.568 18.0587 5.39733 9.73867Z" fill="#193760"/>
</svg>
